<svg width="115" height="32" viewBox="0 0 115 32" fill="none" xmlns="http://www.w3.org/2000/svg">
<mask id="mask0_40004490_221441" style="mask-type:luminance" maskUnits="userSpaceOnUse" x="0" y="0" width="115" height="32">
<path d="M115 0H0V32H115V0Z" fill="white"/>
</mask>
<g mask="url(#mask0_40004490_221441)">
<path d="M0.644 31.1467C0.214667 31.1467 0 30.9902 0 30.6773C0 30.4213 0.186045 30.2507 0.558133 30.1653L1.5456 29.9947C2.14667 29.8808 2.53307 29.7245 2.7048 29.5253C2.90516 29.3262 3.00533 28.928 3.00533 28.3307V3.24267C3.00533 2.64533 2.90516 2.24712 2.7048 2.048C2.53307 1.8489 2.14667 1.69245 1.5456 1.57867L0.558133 1.408C0.186045 1.32267 0 1.152 0 0.895998C0 0.58311 0.214667 0.426667 0.644 0.426667H8.5008C8.93013 0.426667 9.1448 0.597333 9.1448 0.938667C9.1448 1.19467 8.98739 1.35111 8.67253 1.408L7.51333 1.57867C6.91227 1.664 6.51156 1.82045 6.3112 2.048C6.13947 2.27555 6.0536 2.688 6.0536 3.28533V13.9947C6.0536 14.3929 6.25396 14.592 6.65467 14.592H15.1555C15.5561 14.592 15.7565 14.3929 15.7565 13.9947V3.28533C15.7565 2.688 15.6563 2.27555 15.456 2.048C15.2843 1.82045 14.8979 1.664 14.2968 1.57867L13.1376 1.408C12.8228 1.35111 12.6653 1.19467 12.6653 0.938667C12.6653 0.597333 12.88 0.426667 13.3093 0.426667H21.1661C21.5955 0.426667 21.8101 0.58311 21.8101 0.895998C21.8101 1.152 21.624 1.32267 21.252 1.408L20.2645 1.57867C19.6635 1.69245 19.2627 1.8489 19.0624 2.048C18.8907 2.24712 18.8048 2.64533 18.8048 3.24267V28.3307C18.8048 28.928 18.8907 29.3262 19.0624 29.5253C19.2627 29.7245 19.6635 29.8808 20.2645 29.9947L21.252 30.1653C21.624 30.2507 21.8101 30.4213 21.8101 30.6773C21.8101 30.9902 21.5955 31.1467 21.1661 31.1467H13.3093C12.88 31.1467 12.6653 30.976 12.6653 30.6347C12.6653 30.3787 12.8228 30.2222 13.1376 30.1653L14.2968 29.9947C14.8979 29.9093 15.2843 29.7528 15.456 29.5253C15.6563 29.2978 15.7565 28.8853 15.7565 28.288V16.4693C15.7565 16.0712 15.5561 15.872 15.1555 15.872H6.65467C6.25396 15.872 6.0536 16.0712 6.0536 16.4693V28.288C6.0536 28.8853 6.13947 29.2978 6.3112 29.5253C6.51156 29.7528 6.91227 29.9093 7.51333 29.9947L8.67253 30.1653C8.98739 30.2222 9.1448 30.3787 9.1448 30.6347C9.1448 30.976 8.93013 31.1467 8.5008 31.1467H0.644ZM21.8218 31.1467C21.3925 31.1467 21.1778 31.0045 21.1778 30.72C21.1778 30.4355 21.3782 30.2507 21.7789 30.1653L22.4229 30.0373C22.9954 29.9235 23.4247 29.6533 23.7109 29.2267C23.9971 28.7715 24.2405 28.1458 24.4407 27.3493L31.0954 0.682665C31.1527 0.398222 31.2386 0.213332 31.353 0.127998C31.4962 0.0426661 31.625 0 31.7394 0C31.8826 0 32.0114 0.0426661 32.1258 0.127998C32.269 0.213332 32.3691 0.398222 32.4263 0.682665L39.2098 27.7333C39.4102 28.5298 39.6391 29.0845 39.8967 29.3973C40.1543 29.7102 40.5551 29.9235 41.0989 30.0373L41.7429 30.1653C42.1437 30.2507 42.3439 30.4355 42.3439 30.72C42.3439 31.0045 42.1293 31.1467 41.6999 31.1467H34.3583C33.9577 31.1467 33.7573 30.9902 33.7573 30.6773C33.7573 30.3645 34.0006 30.1938 34.4871 30.1653L35.3029 30.08C35.7895 30.0232 36.0901 29.8667 36.2045 29.6107C36.3477 29.3547 36.3477 28.9138 36.2045 28.288L34.573 21.6747C34.4013 20.9352 33.929 20.5653 33.1562 20.5653H28.6482C27.9041 20.5653 27.4318 20.9352 27.2314 21.6747L25.7717 27.392C25.3423 29.0133 25.7717 29.9093 27.0597 30.08L27.7037 30.1653C28.1903 30.2507 28.4335 30.4213 28.4335 30.6773C28.4335 30.9902 28.2333 31.1467 27.8325 31.1467H21.8218ZM28.5194 19.2853H33.2421C33.7001 19.2853 33.8861 19.0435 33.8002 18.56L31.0525 7.12533H30.8378L27.9613 18.56C27.8754 19.0435 28.0615 19.2853 28.5194 19.2853ZM48.4693 31.5733C48.3549 31.5733 48.2261 31.5307 48.0829 31.4453C47.9398 31.36 47.8397 31.1752 47.7823 30.8907L40.9989 3.84C40.7986 3.04355 40.5695 2.48888 40.3119 2.176C40.083 1.86312 39.6824 1.64978 39.1098 1.536L38.4658 1.408C38.0652 1.32267 37.8647 1.13778 37.8647 0.853332C37.8647 0.568888 38.0794 0.426667 38.5087 0.426667H45.8503C46.2512 0.426667 46.4514 0.58311 46.4514 0.895998C46.4514 1.20889 46.2082 1.37956 45.7215 1.408L44.9058 1.49333C44.4193 1.52178 44.1045 1.67823 43.9613 1.96267C43.8469 2.21867 43.8612 2.65957 44.0042 3.28533L48.9845 23.808C49.0418 23.9787 49.1277 24.064 49.2421 24.064C49.3853 24.064 49.4712 23.9787 49.4997 23.808L54.437 4.18133C54.8378 2.56 54.4085 1.664 53.149 1.49333L52.505 1.408C52.0185 1.32267 51.7751 1.152 51.7751 0.895998C51.7751 0.58311 51.9756 0.426667 52.3762 0.426667H58.3869C58.8162 0.426667 59.0309 0.568888 59.0309 0.853332C59.0309 1.13778 58.8306 1.32267 58.4298 1.408L57.7858 1.536C57.2421 1.64978 56.8128 1.93422 56.4978 2.38933C56.2117 2.816 55.9684 3.42755 55.7679 4.224L49.1133 30.8907C49.0561 31.1752 48.956 31.36 48.8127 31.4453C48.6984 31.5307 48.5838 31.5733 48.4693 31.5733ZM59.0484 31.1467C58.619 31.1467 58.4044 30.9902 58.4044 30.6773C58.4044 30.4213 58.5905 30.2507 58.9625 30.1653L59.95 29.9947C60.551 29.8808 60.9374 29.7245 61.1092 29.5253C61.3096 29.3262 61.4097 28.928 61.4097 28.3307V3.24267C61.4097 2.64533 61.3096 2.24712 61.1092 2.048C60.9374 1.8489 60.551 1.69245 59.95 1.57867L58.9625 1.408C58.5905 1.32267 58.4044 1.152 58.4044 0.895998C58.4044 0.58311 58.619 0.426667 59.0484 0.426667H73.474C74.1324 0.426667 74.4901 0.753777 74.5473 1.408L74.8908 8.49067C74.9481 8.97423 74.762 9.216 74.3326 9.216C73.9892 9.216 73.7889 9.03112 73.7316 8.66133L73.474 7.08267C73.1592 5.14845 72.5152 3.74045 71.542 2.85867C70.5689 1.94845 69.2236 1.49333 67.5062 1.49333C66.3614 1.49333 65.56 1.664 65.102 2.00533C64.6726 2.31822 64.458 2.88712 64.458 3.712V13.9947C64.458 14.3929 64.6584 14.592 65.059 14.592H67.2057C68.4652 14.592 69.238 13.9236 69.5241 12.5867L69.9534 10.4533C70.068 10.0267 70.3113 9.84178 70.6833 9.89867C70.9982 9.95557 71.1556 10.1973 71.1556 10.624V20.224C71.1556 20.6507 70.9982 20.8925 70.6833 20.9493C70.3113 21.0062 70.068 20.8213 69.9534 20.3947L69.5241 18.304C69.3238 17.3085 69.0376 16.6542 68.6654 16.3413C68.322 16.0285 67.8212 15.872 67.1628 15.872H65.059C64.6584 15.872 64.458 16.0712 64.458 16.4693V27.1787C64.458 28.2027 64.7156 28.9422 65.2308 29.3973C65.7746 29.8525 66.7478 30.08 68.1502 30.08C69.5814 30.08 70.7978 29.7245 71.7996 29.0133C72.83 28.2738 73.5456 26.9085 73.9462 24.9173L74.4614 22.4C74.5473 22.0302 74.762 21.8453 75.1054 21.8453C75.5062 21.8453 75.678 22.0872 75.6206 22.5707L75.1913 30.1653C75.1341 30.8195 74.7764 31.1467 74.118 31.1467H59.0484ZM95.4612 31.5307C95.0033 31.5307 94.6169 31.1893 94.302 30.5067L82.6671 5.41867C82.5812 5.21957 82.4668 5.13423 82.3236 5.16267C82.2092 5.19112 82.1519 5.31912 82.1519 5.54667V27.4773C82.1519 28.2738 82.2807 28.8853 82.5383 29.312C82.8245 29.7102 83.3255 29.9662 84.0409 30.08L84.5991 30.1653C84.9712 30.1938 85.1572 30.3645 85.1572 30.6773C85.1572 30.9902 84.9425 31.1467 84.5132 31.1467H78.3737C77.9444 31.1467 77.7297 30.9902 77.7297 30.6773C77.7297 30.3645 77.9159 30.1938 78.2879 30.1653L78.846 30.08C79.5903 29.9662 80.1055 29.7102 80.3916 29.312C80.6779 28.8853 80.8209 28.2738 80.8209 27.4773V3.24267C80.8209 2.64533 80.7208 2.24712 80.5204 2.048C80.3487 1.8489 79.9337 1.69245 79.2753 1.57867L78.2879 1.408C77.9159 1.32267 77.7297 1.152 77.7297 0.895998C77.7297 0.58311 77.9444 0.426667 78.3737 0.426667H82.9676C83.6832 0.426667 84.1841 0.739555 84.4703 1.36533L94.6025 23.5093C94.6884 23.68 94.7887 23.7512 94.9031 23.7227C95.0463 23.6942 95.1177 23.5947 95.1177 23.424V4.096C95.1177 3.18578 94.9604 2.56 94.6455 2.21867C94.3307 1.84888 93.93 1.62133 93.4433 1.536L92.6705 1.408C92.2985 1.32267 92.1124 1.152 92.1124 0.895998C92.1124 0.58311 92.3271 0.426667 92.7564 0.426667H98.8959C99.3252 0.426667 99.5399 0.58311 99.5399 0.895998C99.5399 1.20889 99.3539 1.37956 98.9817 1.408L98.4236 1.49333C97.6795 1.60712 97.1643 1.84888 96.878 2.21867C96.5919 2.56 96.4487 3.18578 96.4487 4.096V30.1653C96.4487 30.6773 96.3485 31.0328 96.1481 31.232C95.9764 31.4312 95.7475 31.5307 95.4612 31.5307Z" fill="#09281C"/>
<mask id="mask1_40004490_221441" style="mask-type:luminance" maskUnits="userSpaceOnUse" x="101" y="0" width="14" height="13">
<path d="M114.233 0H101.967V12.1905H114.233V0Z" fill="white"/>
</mask>
<g mask="url(#mask1_40004490_221441)">
<path d="M108.1 12.1905C107.249 12.1905 106.454 12.0334 105.712 11.7191C104.971 11.4049 104.316 10.9714 103.749 10.4188C103.193 9.85534 102.757 9.2052 102.441 8.46831C102.125 7.73147 101.967 6.94043 101.967 6.09522C101.967 5.25003 102.125 4.459 102.441 3.72216C102.757 2.98531 103.193 2.34057 103.749 1.78793C104.316 1.22447 104.971 0.785609 105.712 0.471365C106.454 0.157122 107.249 0 108.1 0C108.951 0 109.746 0.157122 110.488 0.471365C111.229 0.785609 111.878 1.22447 112.434 1.78793C113.001 2.34057 113.443 2.98531 113.759 3.72216C114.075 4.459 114.233 5.25003 114.233 6.09522C114.233 6.94043 114.075 7.73147 113.759 8.46831C113.443 9.2052 113.001 9.85534 112.434 10.4188C111.878 10.9714 111.229 11.4049 110.488 11.7191C109.746 12.0334 108.951 12.1905 108.1 12.1905ZM108.1 11.5728C108.852 11.5728 109.561 11.432 110.226 11.1502C110.891 10.8576 111.475 10.4621 111.976 9.96367C112.478 9.4544 112.87 8.86926 113.154 8.20824C113.437 7.54729 113.579 6.84291 113.579 6.09522C113.579 5.34755 113.437 4.64322 113.154 3.98222C112.87 3.32123 112.478 2.7415 111.976 2.24305C111.475 1.73376 110.891 1.33824 110.226 1.05651C109.561 0.763939 108.852 0.617653 108.1 0.617653C107.348 0.617653 106.639 0.763939 105.974 1.05651C105.309 1.33824 104.725 1.73376 104.224 2.24305C103.722 2.7415 103.33 3.32123 103.046 3.98222C102.763 4.64322 102.621 5.34755 102.621 6.09522C102.621 6.84291 102.763 7.54729 103.046 8.20824C103.33 8.86926 103.722 9.4544 104.224 9.96367C104.725 10.4621 105.309 10.8576 105.974 11.1502C106.639 11.432 107.348 11.5728 108.1 11.5728ZM110.373 9.60608C109.97 9.60608 109.659 9.51401 109.441 9.32977C109.223 9.14557 109.065 8.86926 108.967 8.50082L108.689 7.42805C108.558 6.91878 108.422 6.58284 108.28 6.42031C108.138 6.25777 107.915 6.1765 107.609 6.1765C107.38 6.1765 107.266 6.25777 107.266 6.42031V8.74463C107.266 8.88552 107.288 8.98304 107.331 9.0372C107.375 9.08056 107.462 9.11307 107.593 9.13472L107.936 9.18348C108.024 9.19433 108.078 9.22144 108.1 9.26475C108.133 9.29727 108.149 9.32977 108.149 9.36227C108.149 9.47066 108.089 9.52482 107.969 9.52482H105.663C105.554 9.52482 105.499 9.47066 105.499 9.36227C105.499 9.26475 105.549 9.21059 105.647 9.19974L105.892 9.16722C106.056 9.14557 106.165 9.11307 106.219 9.0697C106.274 9.01554 106.301 8.92341 106.301 8.79339V3.29955C106.301 3.15869 106.274 3.06658 106.219 3.02324C106.165 2.96905 106.056 2.93114 105.892 2.90946L105.696 2.87695C105.565 2.86612 105.499 2.81193 105.499 2.71441C105.499 2.60605 105.57 2.55188 105.712 2.55188H108.084C108.76 2.55188 109.31 2.71441 109.736 3.0395C110.161 3.36457 110.373 3.78176 110.373 4.29105C110.373 4.70281 110.221 5.07124 109.915 5.39631C109.621 5.7214 109.234 5.95435 108.754 6.09522C108.634 6.12774 108.634 6.17109 108.754 6.22527C108.994 6.31192 109.179 6.44742 109.31 6.6316C109.441 6.805 109.545 7.03796 109.621 7.33053L109.883 8.30577C109.97 8.64171 110.068 8.86926 110.177 8.98843C110.286 9.10767 110.428 9.16722 110.602 9.16722C110.701 9.16722 110.82 9.12392 110.962 9.0372C111.028 8.99389 111.082 8.98843 111.126 9.02094C111.18 9.04265 111.208 9.08596 111.208 9.15098C111.208 9.29186 111.126 9.40564 110.962 9.49231C110.799 9.56818 110.602 9.60608 110.373 9.60608ZM108.018 5.86767C108.367 5.86767 108.678 5.73765 108.951 5.47759C109.234 5.20669 109.376 4.85452 109.376 4.42107C109.376 3.94429 109.234 3.57588 108.951 3.31581C108.678 3.04491 108.356 2.90946 107.985 2.90946C107.506 2.90946 107.266 3.03407 107.266 3.28331V5.33131C107.266 5.68888 107.517 5.86767 108.018 5.86767Z" fill="#09281C"/>
</g>
</g>
</svg>
